<?xml version="1.0" encoding="UTF-8" standalone="no"?>
<!-- Created with Inkscape (http://www.inkscape.org/) -->

<svg
   xmlns:dc="http://purl.org/dc/elements/1.1/"
   xmlns:cc="http://creativecommons.org/ns#"
   xmlns:rdf="http://www.w3.org/1999/02/22-rdf-syntax-ns#"
   xmlns:svg="http://www.w3.org/2000/svg"
   xmlns="http://www.w3.org/2000/svg"
   xmlns:sodipodi="http://sodipodi.sourceforge.net/DTD/sodipodi-0.dtd"
   xmlns:inkscape="http://www.inkscape.org/namespaces/inkscape"
   width="40"
   height="40"
   id="svg5607"
   version="1.1"
   inkscape:version="0.48.2 r9819"
   sodipodi:docname="spriite.svg"
   inkscape:export-filename="/Users/tristen/Desktop/forrest/img/sprite.png"
   inkscape:export-xdpi="180"
   inkscape:export-ydpi="180">
  <defs
     id="defs5609" />
  <sodipodi:namedview
     id="base"
     pagecolor="#ffffff"
     bordercolor="#666666"
     borderopacity="1.0"
     inkscape:pageopacity="0.0"
     inkscape:pageshadow="2"
     inkscape:zoom="1"
     inkscape:cx="19.821428"
     inkscape:cy="19.606963"
     inkscape:document-units="px"
     inkscape:current-layer="layer1"
     showgrid="false"
     inkscape:window-width="1280"
     inkscape:window-height="752"
     inkscape:window-x="0"
     inkscape:window-y="0"
     inkscape:window-maximized="1">
    <inkscape:grid
       type="xygrid"
       id="grid5615"
       empspacing="5"
       visible="true"
       enabled="true"
       snapvisiblegridlinesonly="true"
       color="#000000"
       opacity="0.0627451"
       empcolor="#000000"
       empopacity="0.1254902" />
  </sodipodi:namedview>
  <metadata
     id="metadata5612">
    <rdf:RDF>
      <cc:Work
         rdf:about="">
        <dc:format>image/svg+xml</dc:format>
        <dc:type
           rdf:resource="http://purl.org/dc/dcmitype/StillImage" />
        <dc:title></dc:title>
      </cc:Work>
    </rdf:RDF>
  </metadata>
  <g
     inkscape:label="Layer 1"
     inkscape:groupmode="layer"
     id="layer1"
     transform="translate(0,-1012.3622)">
    <path
       style="color:#000000;fill:#404040;fill-opacity:1;fill-rule:nonzero;stroke:none;stroke-width:1;marker:none;visibility:visible;display:inline;overflow:visible;enable-background:accumulate"
       d="m 16.21875,1021.2997 -3.4375,2 1,3.5 c -0.52387,0.6461 -0.94643,1.3665 -1.25,2.1563 L 9,1029.831 l 0,4 3.53125,0.875 c 0.30357,0.7896 0.72613,1.5101 1.25,2.1562 l -1,3.5 3.4375,2 2.53125,-2.625 c 0.4067,0.064 0.82541,0.094 1.25,0.094 0.42459,0 0.8433,-0.03 1.25,-0.094 l 2.53125,2.625 3.4375,-2 -1,-3.5 c 0.52387,-0.6461 0.94643,-1.3666 1.25,-2.1562 L 31,1033.831 l 0,-4 -3.53125,-0.875 c -0.30357,-0.7897 -0.72613,-1.5102 -1.25,-2.1563 l 1,-3.5 -3.4375,-2 -2.53125,2.625 c -0.4067,-0.064 -0.82541,-0.094 -1.25,-0.094 -0.42459,0 -0.8433,0.03 -1.25,0.094 l -2.53125,-2.625 z M 20,1028.831 c 1.65685,0 3,1.3431 3,3 0,1.6568 -1.34315,3 -3,3 -1.65685,0 -3,-1.3432 -3,-3 0,-1.6569 1.34315,-3 3,-3 z"
       id="path3282"
       inkscape:connector-curvature="0" />
  </g>
</svg>
