<?xml version="1.0" encoding="UTF-8" standalone="no"?>
<!-- Created with Inkscape (http://www.inkscape.org/) -->

<svg
   xmlns:dc="http://purl.org/dc/elements/1.1/"
   xmlns:cc="http://creativecommons.org/ns#"
   xmlns:rdf="http://www.w3.org/1999/02/22-rdf-syntax-ns#"
   xmlns:svg="http://www.w3.org/2000/svg"
   xmlns="http://www.w3.org/2000/svg"
   xmlns:sodipodi="http://sodipodi.sourceforge.net/DTD/sodipodi-0.dtd"
   xmlns:inkscape="http://www.inkscape.org/namespaces/inkscape"
   width="40"
   height="40"
   id="svg5607"
   version="1.1"
   inkscape:version="0.48.2 r9819"
   sodipodi:docname="sprite.svg"
   inkscape:export-filename="/Users/tristen/Desktop/forrest/img/sprite@2x.png"
   inkscape:export-xdpi="180"
   inkscape:export-ydpi="180">
  <defs
     id="defs5609" />
  <sodipodi:namedview
     id="base"
     pagecolor="#ffffff"
     bordercolor="#666666"
     borderopacity="1.0"
     inkscape:pageopacity="0.0"
     inkscape:pageshadow="2"
     inkscape:zoom="11.313708"
     inkscape:cx="21.196428"
     inkscape:cy="19.606963"
     inkscape:document-units="px"
     inkscape:current-layer="layer1"
     showgrid="true"
     inkscape:window-width="1280"
     inkscape:window-height="752"
     inkscape:window-x="0"
     inkscape:window-y="0"
     inkscape:window-maximized="1">
    <inkscape:grid
       type="xygrid"
       id="grid5615"
       empspacing="5"
       visible="true"
       enabled="true"
       snapvisiblegridlinesonly="true"
       color="#000000"
       opacity="0.0627451"
       empcolor="#000000"
       empopacity="0.1254902" />
  </sodipodi:namedview>
  <metadata
     id="metadata5612">
    <rdf:RDF>
      <cc:Work
         rdf:about="">
        <dc:format>image/svg+xml</dc:format>
        <dc:type
           rdf:resource="http://purl.org/dc/dcmitype/StillImage" />
        <dc:title></dc:title>
      </cc:Work>
    </rdf:RDF>
  </metadata>
  <g
     inkscape:label="Layer 1"
     inkscape:groupmode="layer"
     id="layer1"
     transform="translate(0,-1012.3622)">
    <path
       style="color:#000000;fill:#404040;fill-opacity:1;fill-rule:nonzero;stroke:none;stroke-width:1;marker:none;visibility:visible;display:inline;overflow:visible;enable-background:accumulate"
       d="m 19,1024.3622 -0.8125,2.2813 c -0.311945,0.099 -0.618679,0.2289 -0.90625,0.375 L 15,1026.3622 l -1,1 0.65625,2.2813 c -0.146021,0.2875 -0.276276,0.5943 -0.375,0.9062 L 12,1031.3622 l 0,2 2.28125,0.8125 c 0.09872,0.3119 0.228979,0.6187 0.375,0.9063 L 14,1037.3622 l 1,1 2.28125,-0.6562 c 0.287571,0.146 0.594305,0.2762 0.90625,0.375 l 0.8125,2.2812 2,0 0.8125,-2.2812 c 0.311945,-0.099 0.618679,-0.229 0.90625,-0.375 l 2.28125,0.6562 1,-1 -0.65625,-2.2812 c 0.146021,-0.2876 0.276276,-0.5944 0.375,-0.9063 L 28,1033.3622 l 0,-2 -2.28125,-0.8125 c -0.09872,-0.3119 -0.228979,-0.6187 -0.375,-0.9062 L 26,1027.3622 l -1,-1 -2.28125,0.6563 c -0.287571,-0.1461 -0.594305,-0.2763 -0.90625,-0.375 L 21,1024.3622 z m 1,6 c 1.104569,0 2,0.8954 2,2 0,1.1046 -0.895431,2 -2,2 -1.104569,0 -2,-0.8954 -2,-2 0,-1.1046 0.895431,-2 2,-2 z"
       id="path7175"
       inkscape:connector-curvature="0"
       sodipodi:nodetypes="cccccccccccccccccccccccccccccccccsssss" />
  </g>
</svg>
