<?xml version="1.0" encoding="UTF-8" standalone="no"?>
<!-- Created with Inkscape (http://www.inkscape.org/) -->

<svg
   xmlns:dc="http://purl.org/dc/elements/1.1/"
   xmlns:cc="http://creativecommons.org/ns#"
   xmlns:rdf="http://www.w3.org/1999/02/22-rdf-syntax-ns#"
   xmlns:svg="http://www.w3.org/2000/svg"
   xmlns="http://www.w3.org/2000/svg"
   xmlns:sodipodi="http://sodipodi.sourceforge.net/DTD/sodipodi-0.dtd"
   xmlns:inkscape="http://www.inkscape.org/namespaces/inkscape"
   width="255"
   height="110"
   id="svg5607"
   version="1.1"
   inkscape:version="0.48.5 r10040"
   sodipodi:docname="sprite.svg"
   inkscape:export-filename="/Users/tristen/dev/github/forrest/img/sprite@2x.png"
   inkscape:export-xdpi="180"
   inkscape:export-ydpi="180">
  <defs
     id="defs5609" />
  <sodipodi:namedview
     id="base"
     pagecolor="#ffffff"
     bordercolor="#666666"
     borderopacity="1.0"
     inkscape:pageopacity="0.0"
     inkscape:pageshadow="2"
     inkscape:zoom="4"
     inkscape:cx="42.379329"
     inkscape:cy="65.917601"
     inkscape:document-units="px"
     inkscape:current-layer="layer1"
     showgrid="true"
     inkscape:window-width="1280"
     inkscape:window-height="751"
     inkscape:window-x="0"
     inkscape:window-y="0"
     inkscape:window-maximized="1">
    <inkscape:grid
       type="xygrid"
       id="grid5615"
       empspacing="5"
       visible="true"
       enabled="true"
       snapvisiblegridlinesonly="true"
       color="#000000"
       opacity="0.0627451"
       empcolor="#000000"
       empopacity="0.1254902" />
  </sodipodi:namedview>
  <metadata
     id="metadata5612">
    <rdf:RDF>
      <cc:Work
         rdf:about="">
        <dc:format>image/svg+xml</dc:format>
        <dc:type
           rdf:resource="http://purl.org/dc/dcmitype/StillImage" />
        <dc:title />
      </cc:Work>
    </rdf:RDF>
  </metadata>
  <g
     inkscape:label="Layer 1"
     inkscape:groupmode="layer"
     id="layer1"
     transform="translate(0,-942.3622)">
    <rect
       style="color:#000000;fill:none;fill-opacity:1;fill-rule:nonzero;stroke:none;stroke-width:1;marker:none;visibility:visible;display:inline;overflow:visible;enable-background:accumulate"
       id="rect4744"
       width="32"
       height="32"
       x="395"
       y="1012.3622"
       inkscape:export-filename="/Users/tristen/dev/github/forrest/img/favicon.png"
       inkscape:export-xdpi="90"
       inkscape:export-ydpi="90" />
    <rect
       style="color:#000000;fill:none;fill-opacity:1;fill-rule:nonzero;stroke:none;stroke-width:1;marker:none;visibility:visible;display:inline;overflow:visible;enable-background:accumulate"
       id="rect4420"
       width="100"
       height="70"
       x="155"
       y="982.36218" />
    <path
       style="color:#000000;fill:#404040;fill-opacity:1;fill-rule:nonzero;stroke:none;stroke-width:1;marker:none;visibility:visible;display:inline;overflow:visible;enable-background:accumulate"
       d="m 19.125,955.3622 -0.710938,1.99614 c -0.272951,0.0866 -0.541344,0.20028 -0.792968,0.32812 L 15.625,957.1122 l -0.875,0.875 0.574219,1.99614 c -0.127769,0.25156 -0.241742,0.52001 -0.328125,0.79292 L 13,961.4872 l 0,1.75 1.996094,0.71094 c 0.08638,0.27291 0.200356,0.54136 0.328125,0.79301 L 14.75,966.7372 l 0.875,0.875 1.996094,-0.57418 c 0.251624,0.12775 0.520017,0.24168 0.792968,0.32813 l 0.710938,1.99605 1.75,0 0.710937,-1.99605 c 0.272952,-0.0866 0.541345,-0.20038 0.792969,-0.32813 l 1.996094,0.57418 0.875,-0.875 -0.574219,-1.99605 c 0.127769,-0.25165 0.241742,-0.5201 0.328125,-0.79301 L 27,963.2372 l 0,-1.75 -1.996094,-0.71094 c -0.08638,-0.27291 -0.200356,-0.54136 -0.328125,-0.79292 L 25.25,957.9872 l -0.875,-0.875 -1.996094,0.57426 c -0.251624,-0.12784 -0.520017,-0.24176 -0.792969,-0.32812 L 20.875,955.3622 z m 0.875,5.25 c 0.966498,0 1.75,0.78347 1.75,1.75 0,0.96652 -0.783502,1.75 -1.75,1.75 -0.966498,0 -1.75,-0.78348 -1.75,-1.75 0,-0.96653 0.783502,-1.75 1.75,-1.75 z"
       id="path7175"
       inkscape:connector-curvature="0"
       sodipodi:nodetypes="cccccccccccccccccccccccccccccccccsssss" />
    <rect
       style="color:#000000;fill:#c3994e;fill-opacity:1;fill-rule:nonzero;stroke:none;stroke-width:1;marker:none;visibility:visible;display:inline;overflow:visible;enable-background:accumulate"
       id="rect3069"
       width="60"
       height="35"
       x="175"
       y="1002.3622"
       rx="1"
       ry="4.375" />
    <path
       style="color:#000000;fill:#803300;fill-opacity:1;fill-rule:nonzero;stroke:none;stroke-width:1;marker:none;visibility:visible;display:inline;overflow:visible;enable-background:accumulate"
       d="m 184,1002.3622 0,35 2,0 0,-35 z m 3,0 0,35 2,0 0,-35 z m 3,0 0,35 2,0 0,-35 z m 29,0 0,35 2,0 0,-35 z m 3,0 0,35 2,0 0,-35 z m 3,0 0,35 2,0 0,-35 z"
       id="rect3848"
       inkscape:connector-curvature="0"
       sodipodi:nodetypes="cccccccccccccccccccccccccccccc" />
    <path
       style="color:#000000;fill:#501912;fill-opacity:1;fill-rule:nonzero;stroke:none;stroke-width:1;marker:none;visibility:visible;display:inline;overflow:visible;enable-background:accumulate"
       d="m 178,1002.3622 c -2.77,0 -3,-0.049 -3,2.375 l 0,30.25 c 0,2.4237 0.23,2.375 3,2.375 l 2,0 0,-35 -2,0 z m 53,0 0,35 2,0 c 2.77,0 3,0.049 3,-2.375 l 0,-30.25 c 0,-2.424 -0.23,-2.375 -3,-2.375 l -2,0 z"
       id="rect3858"
       inkscape:connector-curvature="0" />
    <path
       style="fill:#501912;fill-opacity:1;stroke:none"
       d="m 198,1002.3622 0,-2 c 0,-2 2,-4 4,-4 l 7,0 c 2,0 4,2 4,4 l 0,2 -3,0 0,-2 c 0,-1 -1,-1 -1,-1 l -7,0 c 0,0 -1,0 -1,1 l 0,2 z"
       id="path3892"
       inkscape:connector-curvature="0"
       sodipodi:nodetypes="ccccccccccccc" />
    <path
       style="color:#000000;fill:#d4aa00;fill-opacity:1;fill-rule:nonzero;stroke:none;stroke-width:1;marker:none;visibility:visible;display:inline;overflow:visible;enable-background:accumulate"
       d="m 197,1001.3622 0,1 5,0 0,-1 -5,0 z m 12,0 0,1 5,0 0,-1 -5,0 z"
       id="rect3894"
       inkscape:connector-curvature="0" />
    <path
       style="color:#000000;fill:#d4aa00;fill-opacity:1;fill-rule:nonzero;stroke:none;stroke-width:1;marker:none;visibility:visible;display:inline;overflow:visible;enable-background:accumulate"
       d="m 186,1000.3622 0,1 -1,0 0,1 6,0 0,-1 -1,0 0,-1 -4,0 z"
       id="path3902"
       inkscape:connector-curvature="0" />
    <path
       id="path3913"
       d="m 221,1000.3622 0,1 -1,0 0,1 6,0 0,-1 -1,0 0,-1 -4,0 z"
       style="color:#000000;fill:#d4aa00;fill-opacity:1;fill-rule:nonzero;stroke:none;stroke-width:1;marker:none;visibility:visible;display:inline;overflow:visible;enable-background:accumulate"
       inkscape:connector-curvature="0" />
    <path
       style="opacity:0.5;color:#000000;fill:#c3994e;fill-opacity:1;fill-rule:nonzero;stroke:none;stroke-width:1;marker:none;visibility:visible;display:inline;overflow:visible;enable-background:accumulate"
       d="m 178,1002.3622 55,0 c 2.77,0 3,0 3,2 l 0,3 -61,0 0,-3 c 0,-2 0.23,-2 3,-2 z"
       id="rect3899"
       inkscape:connector-curvature="0"
       sodipodi:nodetypes="sssccss" />
    <path
       style="fill:#c3994e;fill-opacity:1"
       d="m 94.969247,1193.1389 c -1.959155,-0.6212 -3.314986,-1.7703 -5.168266,-4.3803 -0.638908,-0.8997 -1.361843,-1.8542 -1.60652,-2.121 -0.62014,-0.6762 -0.399631,-0.9021 0.748936,-0.7671 0.860401,0.1011 1.00815,0.063 1.558851,-0.4002 1.65129,-1.3894 1.433427,-3.9632 -0.412039,-4.8677 -1.122131,-0.5499 -2.927357,-0.4497 -4.37933,0.2433 -1.936834,0.9244 -2.826045,2.2548 -2.828366,4.2319 -0.0011,0.944 -0.190323,1.0827 -0.626905,0.4594 -0.624262,-0.8912 -0.07285,-2.5517 1.302719,-3.9227 2.800739,-2.7916 8.218575,-2.6733 9.30845,0.2032 0.668671,1.7649 -0.699566,4.0472 -2.645026,4.4122 -0.338107,0.063 -0.614738,0.1937 -0.614738,0.2895 0,0.2713 2.3498,3.2312 3.334101,4.1997 1.624148,1.598 3.677262,2.2887 5.0716,1.7061 0.779134,-0.3255 1.086192,-0.094 0.43827,0.3307 -0.982581,0.6438 -2.22741,0.7807 -3.481737,0.383 z m -9.102861,-2.5171 c 0.349441,-1.6921 0.499462,-3.9385 0.409698,-6.1348 -0.05516,-1.3496 -0.125787,-2.6175 -0.156946,-2.8174 -0.08351,-0.5359 0.763882,-0.5906 1.225227,-0.079 0.310464,0.3442 0.350922,0.6448 0.328608,2.4413 -0.02667,2.1468 -0.27199,4.0456 -0.739899,5.7266 -0.313636,1.1267 -0.519771,1.4541 -0.915566,1.4541 -0.211981,0 -0.24581,-0.1322 -0.151122,-0.5907 z m 33.648014,0.1476 c -1.57684,-0.4327 -2.31794,-1.7449 -1.72295,-3.0507 0.28986,-0.6362 1.27961,-1.2322 2.04618,-1.2322 0.84566,0 0.86413,0.2714 0.037,0.5444 -1.37345,0.4533 -1.81828,1.9512 -0.82711,2.7852 1.56882,1.32 4.59812,0.3189 4.85009,-1.6029 0.13808,-1.0532 -0.44373,-1.7988 -2.30545,-2.9544 -2.57046,-1.5956 -3.06611,-2.2521 -2.70037,-3.5767 0.50289,-1.8213 3.70558,-2.6409 5.0533,-1.2932 0.80969,0.8097 0.47785,2.0987 -0.5403,2.0987 -0.64947,0 -0.8374,-0.2856 -0.3571,-0.5426 0.20699,-0.1108 0.36863,-0.3814 0.36863,-0.6172 0,-0.6542 -0.54937,-1.0215 -1.5279,-1.0215 -1.44015,0 -2.31534,1.1908 -1.69209,2.3023 0.27569,0.4917 0.78271,0.8758 2.423,1.8358 1.83046,1.0712 2.43292,1.8058 2.43292,2.9663 0,1.0697 -0.31354,1.7568 -1.10604,2.4236 -1.17537,0.9891 -2.90501,1.354 -4.43185,0.9351 z m -5.15907,-0.7431 c -0.30012,-0.2526 -0.6609,-0.8047 -0.80171,-1.227 l -0.25602,-0.7677 -0.32592,0.6865 c -0.34477,0.7263 -1.06582,1.4038 -1.49408,1.4038 -0.39089,0 -1.12002,-0.8143 -1.24741,-1.393 -0.23164,-1.0526 -0.28255,-1.0839 -0.64004,-0.3939 -0.72037,1.3904 -2.47496,1.926 -3.21743,0.9821 l -0.34712,-0.4413 -0.89971,0.4453 c -1.21655,0.602 -2.62168,0.7663 -3.03334,0.3547 -0.1688,-0.1688 -0.3069,-0.3855 -0.3069,-0.4814 0,-0.3497 0.56836,-0.3804 0.93296,-0.05 0.36662,0.3318 0.38126,0.3297 0.7315,-0.1028 0.36999,-0.4569 0.35467,-0.7912 -0.0858,-1.8706 l -0.21936,-0.5376 -0.56969,0.7902 c -1.51941,2.1074 -2.923859,3.0096 -3.795775,2.4382 -0.489864,-0.3209 -0.524939,-0.4262 -0.274059,-0.8229 0.144835,-0.229 0.215064,-0.2227 0.511399,0.046 0.862835,0.7808 1.412845,0 0.998835,-1.412 -0.22343,-0.7638 -0.297367,-0.8586 -0.474321,-0.6083 -1.316036,1.8616 -1.734468,2.3536 -2.147173,2.5247 -0.656838,0.2723 -1.178136,-0.028 -1.341653,-0.7722 l -0.127759,-0.5817 -0.279493,0.5347 c -0.364624,0.6976 -0.745674,0.9763 -1.344705,0.9834 -0.971815,0.011 -1.367466,-0.9623 -1.189283,-2.9274 0.106163,-1.1707 0.347298,-1.6111 0.882271,-1.6111 0.316374,0 0.339417,0.1403 0.295843,1.8006 -0.02599,0.9904 0.01801,1.8668 0.09779,1.9477 0.295144,0.299 0.773617,-0.2659 1.109646,-1.3102 0.632389,-1.9654 0.687107,-2.0745 1.039493,-2.0745 0.304524,0 0.341791,0.1524 0.344272,1.4087 0.0045,2.2804 0.38316,2.4194 1.605415,0.589 0.412518,-0.6177 0.833795,-1.4342 0.936172,-1.8144 0.152551,-0.5666 0.459776,-0.9104 0.813365,-0.9104 0.0309,0 0.0963,0.2658 0.1454,0.5907 0.0491,0.3249 0.28527,1.0472 0.52485,1.6051 l 0.43558,1.0143 0.6311,-0.7817 c 0.34711,-0.43 0.7562,-1.1311 0.90909,-1.5582 0.29405,-0.8213 0.90353,-1.1869 0.90353,-0.542 0,0.1952 0.21264,0.8194 0.47253,1.3871 0.32874,0.718 0.45172,1.2502 0.40418,1.7487 -0.0782,0.8205 -0.0128,0.8564 0.63344,0.3481 0.33555,-0.2639 0.50339,-0.6122 0.59125,-1.2269 0.23939,-1.675 1.34437,-2.7139 2.38307,-2.2406 0.43136,0.1965 0.46138,0.2828 0.3727,1.0706 -0.0806,0.716 -0.2189,0.9656 -0.84087,1.5178 -0.81882,0.7269 -0.9043,0.9709 -0.42633,1.2167 0.39482,0.2031 0.74172,0.096 1.28374,-0.398 0.92017,-0.8379 1.18255,-1.5358 1.33577,-3.5529 0.14721,-1.9381 0.52643,-3.7356 0.85804,-4.0672 0.0984,-0.098 0.31747,-0.1257 0.48686,-0.061 0.26342,0.1011 0.28998,0.2822 0.18355,1.2511 -0.0684,0.6231 -0.24244,1.6492 -0.38666,2.2803 -0.45766,2.0025 -0.27246,4.2237 0.39859,4.7806 0.24977,0.2073 0.34765,0.1705 0.69029,-0.2592 0.51338,-0.6438 1.05813,-2.1559 0.91297,-2.5342 -0.14527,-0.3785 0.21498,-3.9636 0.49082,-4.8843 0.26325,-0.8786 0.64794,-1.2507 0.90392,-0.8743 0.21313,0.3135 0.0592,2.7316 -0.29095,4.569 -0.48073,2.5229 0.26869,4.6897 1.62208,4.6897 0.31024,0 0.74586,-0.1274 0.96805,-0.283 0.35452,-0.2483 0.40399,-0.2496 0.40399,-0.01 0,0.8749 -1.98175,1.136 -2.88082,0.3794 z m -6.44654,-3.2613 c 0.29171,-0.6117 0.23272,-1.1873 -0.12168,-1.1873 -0.30035,0 -0.91046,1.13 -0.91121,1.6877 -5.4e-4,0.4537 0.0379,0.4856 0.37091,0.3074 0.20437,-0.1093 0.50226,-0.4729 0.66198,-0.8078 z m 35.47703,3.1908 c -0.39743,-0.3221 -0.42546,-0.4597 -0.37963,-1.8631 0.0272,-0.8334 0.0681,-1.7996 0.0909,-2.147 0.0298,-0.4551 -0.0396,-0.6478 -0.24853,-0.6895 -0.21341,-0.043 -0.39334,0.2571 -0.6817,1.1355 -0.72018,2.1938 -1.65531,3.1849 -3.00511,3.1849 -0.87823,0 -1.3855,-0.6663 -1.3855,-1.82 0,-1.4347 0.59439,-2.4773 1.63627,-2.8702 1.36919,-0.5162 1.76372,0.8934 0.59042,2.1096 -0.3749,0.3885 -0.84149,0.7931 -1.03686,0.899 -0.30792,0.1669 -0.32659,0.2554 -0.14022,0.6644 0.14172,0.3111 0.35904,0.4719 0.63766,0.4719 0.93882,0 2.36472,-2.2483 2.35779,-3.7177 -0.002,-0.4046 0.0787,-0.8379 0.17924,-0.9629 0.28116,-0.3496 0.68351,-0.2694 0.68351,0.1363 0,0.3034 0.12118,0.3636 0.73279,0.3636 0.94929,0 1.0281,0.2318 0.6554,1.928 -0.36859,1.6774 -0.37973,2.6853 -0.0329,2.9732 0.3277,0.2719 0.61431,0.1088 0.8368,-0.4764 0.18846,-0.4957 0.58434,-0.4182 0.40799,0.08 -0.33727,0.9525 -1.1479,1.209 -1.89833,0.6006 z m -3.50195,-3.6875 c 0.29451,-0.566 0.33288,-1.0542 0.0829,-1.0542 -0.29788,0 -1.05421,1.1533 -1.19206,1.8177 l -0.13199,0.6362 0.4929,-0.4544 c 0.2711,-0.2499 0.60782,-0.6753 0.74828,-0.9453 z m -12.89458,3.466 c -0.60416,-0.3512 -0.84637,-1.305 -0.84637,-3.3328 0,-1.7779 -0.0253,-1.9145 -0.35499,-1.9145 -0.19525,0 -0.56368,0.095 -0.81874,0.2113 -0.25506,0.1162 -0.52475,0.1501 -0.59931,0.075 -0.21961,-0.2205 0.67113,-0.8257 1.38584,-0.9416 0.50586,-0.082 0.72348,-0.2387 0.93251,-0.6709 0.39544,-0.8178 0.72708,-0.8433 0.72708,-0.056 0,0.5434 0.075,0.6667 0.46479,0.7646 0.66375,0.1666 2.64214,-0.086 3.12518,-0.3986 0.3631,-0.2351 0.40898,-0.2327 0.40898,0.021 0,0.4271 -1.05083,0.7859 -2.70654,0.924 l -1.47418,0.1229 0,1.8706 c 0,2.0857 0.17959,2.8032 0.70168,2.8032 0.4524,0 0.87929,-0.6695 1.12275,-1.7608 0.47806,-2.1428 1.93655,-3.0491 3.20576,-1.992 0.50429,0.42 0.52042,0.4216 0.87019,0.085 0.53386,-0.5141 1.19988,-0.6283 1.4745,-0.2527 0.12609,0.1724 0.36258,0.9411 0.52553,1.7081 0.16295,0.7671 0.36184,1.5578 0.44197,1.7571 0.13364,0.3324 0.17055,0.3143 0.44584,-0.218 0.42584,-0.8235 0.84562,-2.5384 0.84562,-3.4545 0,-0.6586 0.0565,-0.7797 0.36354,-0.7797 0.3084,0 0.36355,0.1211 0.36355,0.7988 0,1.6123 -1.2365,4.5074 -2.01171,4.7101 -0.63107,0.1651 -0.87473,-0.2701 -1.36972,-2.4464 -0.15882,-0.6983 -0.40153,-1.3129 -0.53936,-1.3657 -0.45575,-0.1749 -0.80525,0.4125 -0.80525,1.3534 0,1.5821 -1.15285,2.7498 -2.47074,2.5026 -0.36053,-0.068 -0.73917,-0.2954 -0.90049,-0.5416 l -0.27837,-0.4248 -0.52424,0.5242 c -0.54399,0.544 -1.1292,0.6533 -1.7053,0.3184 z m 4.70435,-1.0795 c 0.14627,-0.2829 0.26594,-0.7075 0.26594,-0.9437 0,-0.3928 -0.0738,-0.4285 -0.86341,-0.4181 -0.97802,0.013 -1.17216,0.2434 -0.92855,1.1021 0.30385,1.0711 1.04152,1.1966 1.52602,0.2597 z m -0.0274,-2.0399 c 0.30618,-0.2238 0.30486,-0.2556 -0.0278,-0.6664 -0.37249,-0.4601 -0.87302,-0.4227 -1.06573,0.08 -0.27048,0.7048 0.42317,1.0772 1.09357,0.5869 z"
       id="path4410"
       inkscape:connector-curvature="0"
       sodipodi:nodetypes="sssccsscssscsscssssscsssscssssssssscssssssccscssssccscsssscsscccccscscssscsssssssscssssscscssccsccssscsscssssccsscssssscssssssssscsssscssssscsscssccsssscsccssssscsscssscscscscsccscsccssc" />
    <path
       inkscape:connector-curvature="0"
       id="path4414"
       d="m 180,1038.3622 0,-1 4,0 0,1 -1,1 -2,0 z"
       style="color:#000000;fill:#d4aa00;fill-opacity:1;fill-rule:nonzero;stroke:none;stroke-width:1;marker:none;visibility:visible;display:inline;overflow:visible;enable-background:accumulate"
       sodipodi:nodetypes="ccccccc" />
    <path
       sodipodi:nodetypes="ccccccc"
       style="color:#000000;fill:#d4aa00;fill-opacity:1;fill-rule:nonzero;stroke:none;stroke-width:1;marker:none;visibility:visible;display:inline;overflow:visible;enable-background:accumulate"
       d="m 227,1038.3622 0,-1 4,0 0,1 -1,1 -2,0 z"
       id="path4418"
       inkscape:connector-curvature="0" />
    <text
       xml:space="preserve"
       style="font-size:40px;font-style:normal;font-weight:normal;line-height:125%;letter-spacing:0px;word-spacing:0px;fill:#404040;fill-opacity:0;stroke:none;font-family:Sans"
       x="245"
       y="1028.3622"
       id="text3152"
       sodipodi:linespacing="125%"><tspan
         sodipodi:role="line"
         id="tspan3154"
         x="245"
         y="1028.3622"
         style="font-size:28px;font-style:normal;font-variant:normal;font-weight:normal;font-stretch:normal;fill:#404040;fill-opacity:0;font-family:French111 BT;-inkscape-font-specification:French111 BT">Forrest</tspan></text>
    <path
       style="color:#000000;fill:#ffffff;fill-opacity:1;fill-rule:nonzero;stroke:none;stroke-width:1;marker:none;visibility:visible;display:inline;overflow:visible;enable-background:accumulate"
       d="m 55,955.3622 -2,2 5,5 -5,5 2,2 5,-5 5,5 2,-2 -5,-5 5,-5 -2,-2 -5,5 z"
       id="rect4674"
       inkscape:connector-curvature="0"
       sodipodi:nodetypes="ccccccccccccc" />
    <path
       style="color:#000000;fill:#c3994e;fill-opacity:1;fill-rule:nonzero;stroke:none;stroke-width:1;marker:none;visibility:visible;display:inline;overflow:visible;enable-background:accumulate"
       d="m 400,1020.3622 22,0 0,17 -22,0 z"
       id="rect4717"
       inkscape:connector-curvature="0"
       sodipodi:nodetypes="ccccc"
       inkscape:export-filename="/Users/tristen/dev/github/forrest/img/favicon.png"
       inkscape:export-xdpi="90"
       inkscape:export-ydpi="90" />
    <path
       sodipodi:nodetypes="ccccc"
       inkscape:connector-curvature="0"
       id="path4719"
       d="m 402,1020.3622 0,18 3,0 0,-18 z"
       style="color:#000000;fill:#803300;fill-opacity:1;fill-rule:nonzero;stroke:none;stroke-width:1;marker:none;visibility:visible;display:inline;overflow:visible;enable-background:accumulate"
       inkscape:export-filename="/Users/tristen/dev/github/forrest/img/favicon.png"
       inkscape:export-xdpi="90"
       inkscape:export-ydpi="90" />
    <path
       inkscape:connector-curvature="0"
       id="path4721"
       d="m 422,1020.3622 0,17 2,0 0,-17 z"
       style="color:#000000;fill:#501912;fill-opacity:1;fill-rule:nonzero;stroke:none;stroke-width:1;marker:none;visibility:visible;display:inline;overflow:visible;enable-background:accumulate"
       sodipodi:nodetypes="ccccc"
       inkscape:export-filename="/Users/tristen/dev/github/forrest/img/favicon.png"
       inkscape:export-xdpi="90"
       inkscape:export-ydpi="90" />
    <path
       sodipodi:nodetypes="ccccccccccc"
       inkscape:connector-curvature="0"
       id="path4723"
       d="m 407,1020.3622 0,-2 1,-1 6,0 1,1 0,2 -2,0 0,-1 -4,0 0,1 z"
       style="fill:#501912;fill-opacity:1;stroke:none"
       inkscape:export-filename="/Users/tristen/dev/github/forrest/img/favicon.png"
       inkscape:export-xdpi="90"
       inkscape:export-ydpi="90" />
    <path
       inkscape:connector-curvature="0"
       id="path4727"
       d="m 403,1019.3622 -1,1 3,0 -1,-1 z"
       style="color:#000000;fill:#d4aa00;fill-opacity:1;fill-rule:nonzero;stroke:none;stroke-width:1;marker:none;visibility:visible;display:inline;overflow:visible;enable-background:accumulate"
       sodipodi:nodetypes="ccccc"
       inkscape:export-filename="/Users/tristen/dev/github/forrest/img/favicon.png"
       inkscape:export-xdpi="90"
       inkscape:export-ydpi="90" />
    <path
       inkscape:export-ydpi="90"
       inkscape:export-xdpi="90"
       inkscape:export-filename="/Users/tristen/dev/github/forrest/img/favicon.png"
       sodipodi:nodetypes="ccccc"
       style="color:#000000;fill:#501912;fill-opacity:1;fill-rule:nonzero;stroke:none;stroke-width:1;marker:none;visibility:visible;display:inline;overflow:visible;enable-background:accumulate"
       d="m 400,1020.3622 0,17 -2,0 0,-17 z"
       id="path4746"
       inkscape:connector-curvature="0" />
    <path
       inkscape:export-ydpi="90"
       inkscape:export-xdpi="90"
       inkscape:export-filename="/Users/tristen/dev/github/forrest/img/favicon.png"
       style="color:#000000;fill:#803300;fill-opacity:1;fill-rule:nonzero;stroke:none;stroke-width:1;marker:none;visibility:visible;display:inline;overflow:visible;enable-background:accumulate"
       d="m 417,1020.3622 0,18 3,0 0,-18 z"
       id="path4770"
       inkscape:connector-curvature="0"
       sodipodi:nodetypes="ccccc" />
    <path
       inkscape:export-ydpi="90"
       inkscape:export-xdpi="90"
       inkscape:export-filename="/Users/tristen/dev/github/forrest/img/favicon.png"
       sodipodi:nodetypes="ccccc"
       style="color:#000000;fill:#d4aa00;fill-opacity:1;fill-rule:nonzero;stroke:none;stroke-width:1;marker:none;visibility:visible;display:inline;overflow:visible;enable-background:accumulate"
       d="m 418,1019.3622 -1,1 3,0 -1,-1 z"
       id="path4772"
       inkscape:connector-curvature="0" />
    <path
       style="color:#000000;fill:#501912;fill-opacity:1;fill-rule:nonzero;stroke:none;stroke-width:1;marker:none;visibility:visible;display:inline;overflow:visible;enable-background:accumulate"
       d="M 402 95 L 402 96 L 405 96 L 405 95 L 402 95 z M 417 95 L 417 96 L 420 96 L 420 95 L 417 95 z "
       transform="translate(0,942.3622)"
       id="rect4774"
       inkscape:export-filename="/Users/tristen/dev/github/forrest/img/favicon.png"
       inkscape:export-xdpi="90"
       inkscape:export-ydpi="90" />
    <path
       sodipodi:nodetypes="ccccc"
       inkscape:connector-curvature="0"
       id="path4779"
       d="m 0,982.3622 145,0 0,63 -145,0 z"
       style="color:#000000;fill:#f8f8f8;fill-opacity:1;fill-rule:nonzero;stroke:none;stroke-width:1;marker:none;visibility:visible;display:inline;overflow:visible;enable-background:accumulate" />
    <path
       style="fill:#e0e0e0;fill-opacity:1;stroke:none"
       d="m 0,1045.3622 5,7 145,0 -5,-7 z"
       id="path4803"
       inkscape:connector-curvature="0"
       sodipodi:nodetypes="ccccc" />
    <path
       style="fill:#e0e0e0;fill-opacity:1;stroke:none"
       d="m 145,982.3622 5,10 0,60 -5,-7 z"
       id="path4805"
       inkscape:connector-curvature="0"
       sodipodi:nodetypes="ccccc" />
    <path
       sodipodi:nodetypes="ccccccccccccccccc"
       inkscape:connector-curvature="0"
       id="path4781"
       d="m 30,982.3622 0,30 -30,0 0,10 30,0 0,23 3,7 10,0 -3,-7 0,-23 105,0 5,6 0,-10 -5,-6 -105,0 0,-30 z"
       style="color:#000000;fill:#ff4343;fill-opacity:1;fill-rule:nonzero;stroke:none;stroke-width:1;marker:none;visibility:visible;display:inline;overflow:visible;enable-background:accumulate" />
    <path
       sodipodi:nodetypes="ccccc"
       inkscape:connector-curvature="0"
       id="path4783"
       d="m 33,1009.3622 10,10 -16,14 -10,-10 z"
       style="fill:#ff4343;fill-opacity:1;stroke:none" />
    <path
       style="fill:#ff4343;fill-opacity:1;stroke:none"
       d="m 34,1022.3622 10,-10 -16,-14 -10,10 z"
       id="path4785"
       inkscape:connector-curvature="0"
       sodipodi:nodetypes="ccccc" />
    <path
       sodipodi:nodetypes="ccccc"
       inkscape:connector-curvature="0"
       id="path4787"
       d="m 36,1022.3622 -10,-10 16,-14 10,10 z"
       style="fill:#ff4343;fill-opacity:1;stroke:none" />
    <path
       style="fill:#ff4343;fill-opacity:1;stroke:none"
       d="m 36,1008.3622 -10,10 16,14 10,-10 z"
       id="path4789"
       inkscape:connector-curvature="0"
       sodipodi:nodetypes="ccccc" />
    <path
       sodipodi:nodetypes="cccc"
       inkscape:connector-curvature="0"
       id="path4791"
       d="m 52,1008.3622 -5,10 -3,-3 z"
       style="fill:#bf3232;fill-opacity:1;stroke:none" />
    <path
       style="fill:#bf3232;fill-opacity:1;stroke:none"
       d="m 27,1033.3622 8,-7 4,3 z"
       id="path4793"
       inkscape:connector-curvature="0"
       sodipodi:nodetypes="cccc" />
    <path
       inkscape:connector-curvature="0"
       id="path4795"
       d="m 18,1008.3622 5,10 3,-3 z"
       style="fill:#bf3232;fill-opacity:1;stroke:none" />
    <path
       inkscape:connector-curvature="0"
       id="path4797"
       d="m 35,1004.3622 3,-2 -10,-4 z"
       style="fill:#bf3232;fill-opacity:1;stroke:none" />
    <path
       sodipodi:nodetypes="ccccc"
       inkscape:connector-curvature="0"
       id="path4799"
       d="m 35,1026.3622 9,-11 2,1 -10,12 z"
       style="fill:#bf3232;fill-opacity:1;stroke:none" />
    <path
       style="fill:#bf3232;fill-opacity:1;stroke:none"
       d="m 24,1014.3622 10,-12 1,2 -10,12 z"
       id="path4801"
       inkscape:connector-curvature="0"
       sodipodi:nodetypes="ccccc" />
    <path
       style="opacity:0.25;fill:#222222;fill-opacity:1;stroke:none"
       d="m 30,1045.3622 3,7 10,0 -3,-7 z"
       id="path4807"
       inkscape:connector-curvature="0"
       sodipodi:nodetypes="ccccc" />
    <path
       style="fill:#bf3232;fill-opacity:1;stroke:none"
       d="m 145,1022.3622 5,6 0,-10 -5,-6 z"
       id="path4809"
       inkscape:connector-curvature="0"
       sodipodi:nodetypes="ccccc" />
  </g>
</svg>
